<svg version="1.1"
style="background-color:black"
     width="4032" height="3024"
     xmlns="http://www.w3.org/2000/svg">
<circle cx="2260" cy="1487" r="102" fill="white" />
<circle cx="1798" cy="1403" r="91" fill="white" />
<circle cx="1281" cy="1188" r="86" fill="white" />
<circle cx="3116" cy="1408" r="85" fill="white" />
<circle cx="3146" cy="810" r="85" fill="white" />
<circle cx="2090" cy="1409" r="83" fill="white" />
<circle cx="3313" cy="711" r="82" fill="white" />
<circle cx="2898" cy="1279" r="73" fill="white" />
<circle cx="1456" cy="1174" r="71" fill="white" />
<circle cx="3011" cy="1673" r="67" fill="white" />
<circle cx="2662" cy="1507" r="66" fill="white" />
<circle cx="1170" cy="1349" r="64" fill="white" />
<circle cx="2419" cy="1358" r="64" fill="white" />
<circle cx="3527" cy="822" r="62" fill="white" />
<circle cx="1948" cy="1385" r="61" fill="white" />
<circle cx="1643" cy="1263" r="60" fill="white" />
<circle cx="2711" cy="1635" r="60" fill="white" />
<circle cx="1182" cy="2944" r="55" fill="white" />
<circle cx="2021" cy="1530" r="54" fill="white" />
<circle cx="2399" cy="1558" r="54" fill="white" />
<circle cx="2537" cy="1349" r="54" fill="white" />
<circle cx="2663" cy="1378" r="54" fill="white" />
<circle cx="3186" cy="662" r="53" fill="white" />
<circle cx="2955" cy="1567" r="53" fill="white" />
<circle cx="2780" cy="1240" r="52" fill="white" />
<circle cx="1158" cy="2664" r="51" fill="white" />
<circle cx="2937" cy="930" r="51" fill="white" />
<circle cx="3019" cy="764" r="51" fill="white" />
<circle cx="1466" cy="2260" r="50" fill="white" />
<circle cx="1839" cy="1537" r="49" fill="white" />
<circle cx="3012" cy="1323" r="49" fill="white" />
<circle cx="2569" cy="1603" r="48" fill="white" />
<circle cx="1497" cy="2510" r="46" fill="white" />
<circle cx="3089" cy="693" r="46" fill="white" />
<circle cx="2861" cy="1138" r="45" fill="white" />
<circle cx="3129" cy="1584" r="45" fill="white" />
<circle cx="2806" cy="1506" r="44" fill="white" />
<circle cx="3446" cy="914" r="44" fill="white" />
<circle cx="1163" cy="1241" r="44" fill="white" />
<circle cx="1916" cy="1484" r="44" fill="white" />
<circle cx="1569" cy="1191" r="43" fill="white" />
<circle cx="2143" cy="1573" r="43" fill="white" />
<circle cx="2949" cy="1389" r="42" fill="white" />
<circle cx="1608" cy="1976" r="41" fill="white" />
<circle cx="3627" cy="843" r="41" fill="white" />
<circle cx="2313" cy="1619" r="40" fill="white" />
<circle cx="2426" cy="1655" r="40" fill="white" />
<circle cx="2754" cy="1440" r="40" fill="white" />
<circle cx="2585" cy="1428" r="39" fill="white" />
<circle cx="2819" cy="1710" r="38" fill="white" />
<circle cx="2877" cy="2731" r="38" fill="white" />
<circle cx="1935" cy="1573" r="36" fill="white" />
<circle cx="2918" cy="1479" r="36" fill="white" />
<circle cx="2969" cy="836" r="36" fill="white" />
<circle cx="3169" cy="1296" r="36" fill="white" />
<circle cx="3431" cy="709" r="36" fill="white" />
<circle cx="1162" cy="2856" r="35" fill="white" />
<circle cx="1598" cy="2075" r="35" fill="white" />
<circle cx="1660" cy="1892" r="35" fill="white" />
<circle cx="2893" cy="1004" r="35" fill="white" />
<circle cx="2805" cy="1639" r="35" fill="white" />
<circle cx="3235" cy="890" r="34" fill="white" />
<circle cx="2199" cy="1366" r="34" fill="white" />
<circle cx="1687" cy="1345" r="34" fill="white" />
<circle cx="1390" cy="2086" r="33" fill="white" />
<circle cx="1462" cy="2344" r="33" fill="white" />
<circle cx="2394" cy="1470" r="33" fill="white" />
<circle cx="2564" cy="1522" r="33" fill="white" />
<circle cx="3251" cy="606" r="33" fill="white" />
<circle cx="1427" cy="1524" r="32" fill="white" />
<circle cx="1563" cy="2185" r="32" fill="white" />
<circle cx="2208" cy="1622" r="32" fill="white" />
<circle cx="3303" cy="927" r="32" fill="white" />
<circle cx="3004" cy="1439" r="32" fill="white" />
<circle cx="1294" cy="2973" r="31" fill="white" />
<circle cx="1754" cy="1524" r="31" fill="white" />
<circle cx="2325" cy="1357" r="31" fill="white" />
<circle cx="1436" cy="2402" r="30" fill="white" />
<circle cx="1543" cy="2028" r="30" fill="white" />
<circle cx="1763" cy="1618" r="30" fill="white" />
<circle cx="2747" cy="1550" r="30" fill="white" />
<circle cx="1610" cy="2528" r="29" fill="white" />
<circle cx="3172" cy="1508" r="29" fill="white" />
<circle cx="3222" cy="1364" r="29" fill="white" />
<circle cx="2870" cy="1065" r="29" fill="white" />
<circle cx="2753" cy="1713" r="29" fill="white" />
<circle cx="1420" cy="2195" r="28" fill="white" />
<circle cx="2075" cy="1594" r="28" fill="white" />
<circle cx="2619" cy="1300" r="28" fill="white" />
<circle cx="2698" cy="1266" r="28" fill="white" />
<circle cx="2851" cy="2661" r="28" fill="white" />
<circle cx="1159" cy="2794" r="28" fill="white" />
<circle cx="1475" cy="1369" r="27" fill="white" />
<circle cx="2492" cy="1473" r="27" fill="white" />
<circle cx="2957" cy="2766" r="27" fill="white" />
<circle cx="3197" cy="1559" r="27" fill="white" />
<circle cx="1445" cy="2460" r="27" fill="white" />
<circle cx="1234" cy="3007" r="26" fill="white" />
<circle cx="1402" cy="2144" r="26" fill="white" />
<circle cx="1474" cy="2184" r="26" fill="white" />
<circle cx="2504" cy="1642" r="26" fill="white" />
<circle cx="2907" cy="2788" r="26" fill="white" />
<circle cx="2947" cy="1741" r="26" fill="white" />
<circle cx="3257" cy="804" r="26" fill="white" />
<circle cx="3365" cy="558" r="26" fill="white" />
<circle cx="3474" cy="753" r="26" fill="white" />
<circle cx="1083" cy="2632" r="25" fill="white" />
<circle cx="2268" cy="1360" r="25" fill="white" />
<circle cx="2729" cy="1762" r="25" fill="white" />
<circle cx="2868" cy="1441" r="25" fill="white" />
<circle cx="2575" cy="1675" r="25" fill="white" />
<circle cx="1375" cy="2031" r="24" fill="white" />
<circle cx="2481" cy="1589" r="24" fill="white" />
<circle cx="3115" cy="1254" r="24" fill="white" />
<circle cx="1991" cy="1458" r="24" fill="white" />
<circle cx="3443" cy="847" r="24" fill="white" />
<circle cx="2120" cy="1511" r="24" fill="white" />
<circle cx="1167" cy="2741" r="23" fill="white" />
<circle cx="1200" cy="1431" r="23" fill="white" />
<circle cx="1556" cy="2547" r="23" fill="white" />
<circle cx="2794" cy="1582" r="23" fill="white" />
<circle cx="2949" cy="1020" r="23" fill="white" />
<circle cx="3414" cy="566" r="23" fill="white" />
<circle cx="1235" cy="1286" r="23" fill="white" />
<circle cx="3182" cy="911" r="23" fill="white" />
<circle cx="2501" cy="1417" r="23" fill="white" />
<circle cx="2639" cy="1592" r="23" fill="white" />
<circle cx="3613" cy="905" r="23" fill="white" />
<circle cx="1148" cy="1873" r="22" fill="white" />
<circle cx="1546" cy="1252" r="22" fill="white" />
<circle cx="1565" cy="2502" r="22" fill="white" />
<circle cx="1986" cy="1616" r="22" fill="white" />
<circle cx="2805" cy="1310" r="22" fill="white" />
<circle cx="2870" cy="1677" r="22" fill="white" />
<circle cx="1374" cy="1132" r="22" fill="white" />
<circle cx="1543" cy="2086" r="22" fill="white" />
<circle cx="1717" cy="1298" r="22" fill="white" />
<circle cx="1400" cy="2287" r="21" fill="white" />
<circle cx="1606" cy="1876" r="21" fill="white" />
<circle cx="1669" cy="1794" r="21" fill="white" />
<circle cx="2481" cy="1299" r="21" fill="white" />
<circle cx="2505" cy="1542" r="21" fill="white" />
<circle cx="2741" cy="1302" r="21" fill="white" />
<circle cx="2866" cy="2431" r="21" fill="white" />
<circle cx="2880" cy="1722" r="21" fill="white" />
<circle cx="3320" cy="814" r="21" fill="white" />
<circle cx="2928" cy="1646" r="21" fill="white" />
<circle cx="2783" cy="1756" r="21" fill="white" />
<circle cx="1233" cy="2598" r="20" fill="white" />
<circle cx="1515" cy="2205" r="20" fill="white" />
<circle cx="1831" cy="1606" r="20" fill="white" />
<circle cx="2136" cy="1636" r="20" fill="white" />
<circle cx="2858" cy="1554" r="20" fill="white" />
<circle cx="2348" cy="1403" r="20" fill="white" />
<circle cx="2639" cy="1668" r="20" fill="white" />
<circle cx="2807" cy="1173" r="20" fill="white" />
<circle cx="1661" cy="1947" r="20" fill="white" />
<circle cx="2398" cy="1707" r="20" fill="white" />
<circle cx="2870" cy="1506" r="20" fill="white" />
<circle cx="1380" cy="1223" r="19" fill="white" />
<circle cx="1535" cy="2127" r="19" fill="white" />
<circle cx="1631" cy="2032" r="19" fill="white" />
<circle cx="2257" cy="1638" r="19" fill="white" />
<circle cx="2843" cy="2610" r="19" fill="white" />
<circle cx="2876" cy="1775" r="19" fill="white" />
<circle cx="3079" cy="1210" r="19" fill="white" />
<circle cx="3198" cy="1110" r="19" fill="white" />
<circle cx="3201" cy="1468" r="19" fill="white" />
<circle cx="3327" cy="882" r="19" fill="white" />
<circle cx="3687" cy="844" r="19" fill="white" />
<circle cx="3744" cy="858" r="19" fill="white" />
<circle cx="3136" cy="913" r="19" fill="white" />
<circle cx="1885" cy="1337" r="19" fill="white" />
<circle cx="2837" cy="1198" r="19" fill="white" />
<circle cx="2375" cy="1626" r="19" fill="white" />
<circle cx="1355" cy="1994" r="19" fill="white" />
<circle cx="1089" cy="2684" r="18" fill="white" />
<circle cx="1206" cy="1583" r="18" fill="white" />
<circle cx="1375" cy="1547" r="18" fill="white" />
<circle cx="1560" cy="1939" r="18" fill="white" />
<circle cx="1672" cy="1833" r="18" fill="white" />
<circle cx="2498" cy="1703" r="18" fill="white" />
<circle cx="2538" cy="1463" r="18" fill="white" />
<circle cx="2538" cy="1727" r="18" fill="white" />
<circle cx="2833" cy="2513" r="18" fill="white" />
<circle cx="2838" cy="1768" r="18" fill="white" />
<circle cx="3090" cy="1640" r="18" fill="white" />
<circle cx="3259" cy="1393" r="18" fill="white" />
<circle cx="3577" cy="885" r="18" fill="white" />
<circle cx="3015" cy="1390" r="18" fill="white" />
<circle cx="2014" cy="1343" r="18" fill="white" />
<circle cx="1254" cy="2944" r="18" fill="white" />
<circle cx="3210" cy="728" r="18" fill="white" />
<circle cx="3077" cy="1311" r="18" fill="white" />
<circle cx="2745" cy="1498" r="18" fill="white" />
<circle cx="2575" cy="1289" r="18" fill="white" />
<circle cx="2755" cy="1795" r="18" fill="white" />
<circle cx="2827" cy="1429" r="18" fill="white" />
<circle cx="1398" cy="2452" r="17" fill="white" />
<circle cx="1420" cy="1366" r="17" fill="white" />
<circle cx="1689" cy="1411" r="17" fill="white" />
<circle cx="1733" cy="1581" r="17" fill="white" />
<circle cx="2347" cy="1695" r="17" fill="white" />
<circle cx="2680" cy="1706" r="17" fill="white" />
<circle cx="2991" cy="1021" r="17" fill="white" />
<circle cx="3045" cy="1566" r="17" fill="white" />
<circle cx="3226" cy="1086" r="17" fill="white" />
<circle cx="3259" cy="1269" r="17" fill="white" />
<circle cx="3373" cy="854" r="17" fill="white" />
<circle cx="3484" cy="988" r="17" fill="white" />
<circle cx="1179" cy="1182" r="17" fill="white" />
<circle cx="2091" cy="1540" r="17" fill="white" />
<circle cx="2719" cy="1336" r="17" fill="white" />
<circle cx="1219" cy="2636" r="17" fill="white" />
<circle cx="1529" cy="2240" r="17" fill="white" />
<circle cx="2654" cy="1272" r="17" fill="white" />
<circle cx="2986" cy="2798" r="17" fill="white" />
<circle cx="3021" cy="1589" r="17" fill="white" />
<circle cx="1144" cy="1923" r="16" fill="white" />
<circle cx="1386" cy="2231" r="16" fill="white" />
<circle cx="1588" cy="2136" r="16" fill="white" />
<circle cx="1693" cy="1640" r="16" fill="white" />
<circle cx="2409" cy="1749" r="16" fill="white" />
<circle cx="2439" cy="1730" r="16" fill="white" />
<circle cx="2474" cy="1513" r="16" fill="white" />
<circle cx="2935" cy="2820" r="16" fill="white" />
<circle cx="2980" cy="982" r="16" fill="white" />
<circle cx="3124" cy="1645" r="16" fill="white" />
<circle cx="3197" cy="1019" r="16" fill="white" />
<circle cx="3220" cy="938" r="16" fill="white" />
<circle cx="3358" cy="906" r="16" fill="white" />
<circle cx="3401" cy="666" r="16" fill="white" />
<circle cx="2941" cy="1202" r="16" fill="white" />
<circle cx="2887" cy="1578" r="16" fill="white" />
<circle cx="2891" cy="1190" r="16" fill="white" />
<circle cx="3599" cy="794" r="16" fill="white" />
<circle cx="2773" cy="1388" r="16" fill="white" />
<circle cx="3118" cy="1294" r="16" fill="white" />
<circle cx="2256" cy="1604" r="16" fill="white" />
<circle cx="3264" cy="1301" r="16" fill="white" />
<circle cx="1131" cy="2896" r="15" fill="white" />
<circle cx="1210" cy="1490" r="15" fill="white" />
<circle cx="1798" cy="1839" r="15" fill="white" />
<circle cx="2440" cy="1502" r="15" fill="white" />
<circle cx="2636" cy="1632" r="15" fill="white" />
<circle cx="2812" cy="1392" r="15" fill="white" />
<circle cx="2925" cy="865" r="15" fill="white" />
<circle cx="2972" cy="1165" r="15" fill="white" />
<circle cx="2983" cy="1243" r="15" fill="white" />
<circle cx="3026" cy="1130" r="15" fill="white" />
<circle cx="3060" cy="1181" r="15" fill="white" />
<circle cx="3131" cy="1141" r="15" fill="white" />
<circle cx="3216" cy="1408" r="15" fill="white" />
<circle cx="3494" cy="949" r="15" fill="white" />
<circle cx="3651" cy="903" r="15" fill="white" />
<circle cx="2851" cy="1353" r="15" fill="white" />
<circle cx="1509" cy="1241" r="15" fill="white" />
<circle cx="2699" cy="1436" r="15" fill="white" />
<circle cx="2605" cy="1341" r="15" fill="white" />
<circle cx="2965" cy="1500" r="15" fill="white" />
<circle cx="3213" cy="1320" r="15" fill="white" />
<circle cx="1471" cy="1508" r="15" fill="white" />
<circle cx="1608" cy="1911" r="15" fill="white" />
<circle cx="1802" cy="1588" r="15" fill="white" />
<circle cx="3388" cy="904" r="15" fill="white" />
<circle cx="1398" cy="2326" r="14" fill="white" />
<circle cx="1579" cy="1902" r="14" fill="white" />
<circle cx="1626" cy="1190" r="14" fill="white" />
<circle cx="1658" cy="1396" r="14" fill="white" />
<circle cx="1888" cy="1591" r="14" fill="white" />
<circle cx="2027" cy="1647" r="14" fill="white" />
<circle cx="2030" cy="1598" r="14" fill="white" />
<circle cx="2154" cy="1665" r="14" fill="white" />
<circle cx="2370" cy="1659" r="14" fill="white" />
<circle cx="2520" cy="1679" r="14" fill="white" />
<circle cx="2520" cy="1758" r="14" fill="white" />
<circle cx="2736" cy="1378" r="14" fill="white" />
<circle cx="2897" cy="1811" r="14" fill="white" />
<circle cx="3004" cy="1175" r="14" fill="white" />
<circle cx="3201" cy="1637" r="14" fill="white" />
<circle cx="3215" cy="1521" r="14" fill="white" />
<circle cx="3220" cy="1167" r="14" fill="white" />
<circle cx="3246" cy="1219" r="14" fill="white" />
<circle cx="3256" cy="1429" r="14" fill="white" />
<circle cx="3268" cy="1362" r="14" fill="white" />
<circle cx="3316" cy="567" r="14" fill="white" />
<circle cx="3436" cy="1005" r="14" fill="white" />
<circle cx="3113" cy="1506" r="14" fill="white" />
<circle cx="3239" cy="841" r="14" fill="white" />
<circle cx="2157" cy="1340" r="14" fill="white" />
<circle cx="2587" cy="1481" r="14" fill="white" />
<circle cx="3029" cy="700" r="14" fill="white" />
<circle cx="1515" cy="1375" r="14" fill="white" />
<circle cx="3206" cy="1598" r="14" fill="white" />
<circle cx="1363" cy="2136" r="14" fill="white" />
<circle cx="2567" cy="1713" r="14" fill="white" />
<circle cx="1412" cy="2027" r="14" fill="white" />
<circle cx="1761" cy="1568" r="14" fill="white" />
<circle cx="3005" cy="1261" r="14" fill="white" />
<circle cx="1221" cy="2566" r="13" fill="white" />
<circle cx="1271" cy="1287" r="13" fill="white" />
<circle cx="1360" cy="2484" r="13" fill="white" />
<circle cx="1440" cy="2133" r="13" fill="white" />
<circle cx="1502" cy="2131" r="13" fill="white" />
<circle cx="1541" cy="1985" r="13" fill="white" />
<circle cx="1615" cy="2120" r="13" fill="white" />
<circle cx="1623" cy="1663" r="13" fill="white" />
<circle cx="1653" cy="2007" r="13" fill="white" />
<circle cx="1662" cy="1980" r="13" fill="white" />
<circle cx="1896" cy="1617" r="13" fill="white" />
<circle cx="2091" cy="1637" r="13" fill="white" />
<circle cx="2277" cy="1699" r="13" fill="white" />
<circle cx="2711" cy="1721" r="13" fill="white" />
<circle cx="2896" cy="1606" r="13" fill="white" />
<circle cx="2908" cy="1104" r="13" fill="white" />
<circle cx="2908" cy="1742" r="13" fill="white" />
<circle cx="2958" cy="1065" r="13" fill="white" />
<circle cx="2958" cy="1444" r="13" fill="white" />
<circle cx="3017" cy="1036" r="13" fill="white" />
<circle cx="3032" cy="1220" r="13" fill="white" />
<circle cx="3032" cy="1475" r="13" fill="white" />
<circle cx="3059" cy="1488" r="13" fill="white" />
<circle cx="3122" cy="644" r="13" fill="white" />
<circle cx="3235" cy="1190" r="13" fill="white" />
<circle cx="3391" cy="597" r="13" fill="white" />
<circle cx="3406" cy="852" r="13" fill="white" />
<circle cx="3499" cy="892" r="13" fill="white" />
<circle cx="3525" cy="897" r="13" fill="white" />
<circle cx="3540" cy="983" r="13" fill="white" />
<circle cx="2083" cy="1504" r="13" fill="white" />
<circle cx="1534" cy="1145" r="13" fill="white" />
<circle cx="2457" cy="1424" r="13" fill="white" />
<circle cx="1621" cy="1332" r="13" fill="white" />
<circle cx="3145" cy="713" r="13" fill="white" />
<circle cx="1127" cy="1284" r="13" fill="white" />
<circle cx="1900" cy="1538" r="13" fill="white" />
<circle cx="2466" cy="1556" r="13" fill="white" />
<circle cx="2827" cy="1336" r="13" fill="white" />
<circle cx="1426" cy="2308" r="13" fill="white" />
<circle cx="2507" cy="1509" r="13" fill="white" />
<circle cx="2835" cy="1458" r="13" fill="white" />
<circle cx="1087" cy="2595" r="12" fill="white" />
<circle cx="1141" cy="1838" r="12" fill="white" />
<circle cx="1323" cy="2475" r="12" fill="white" />
<circle cx="1473" cy="2141" r="12" fill="white" />
<circle cx="1548" cy="2262" r="12" fill="white" />
<circle cx="1572" cy="1286" r="12" fill="white" />
<circle cx="1573" cy="1867" r="12" fill="white" />
<circle cx="1602" cy="2163" r="12" fill="white" />
<circle cx="1624" cy="1842" r="12" fill="white" />
<circle cx="1938" cy="1625" r="12" fill="white" />
<circle cx="2131" cy="1689" r="12" fill="white" />
<circle cx="2192" cy="1716" r="12" fill="white" />
<circle cx="2458" cy="1708" r="12" fill="white" />
<circle cx="2476" cy="1671" r="12" fill="white" />
<circle cx="2514" cy="1287" r="12" fill="white" />
<circle cx="2515" cy="1576" r="12" fill="white" />
<circle cx="2534" cy="1429" r="12" fill="white" />
<circle cx="2593" cy="1708" r="12" fill="white" />
<circle cx="2598" cy="1749" r="12" fill="white" />
<circle cx="2652" cy="1698" r="12" fill="white" />
<circle cx="2852" cy="1646" r="12" fill="white" />
<circle cx="2920" cy="1902" r="12" fill="white" />
<circle cx="2927" cy="1679" r="12" fill="white" />
<circle cx="2927" cy="2723" r="12" fill="white" />
<circle cx="3030" cy="1178" r="12" fill="white" />
<circle cx="3063" cy="1599" r="12" fill="white" />
<circle cx="3079" cy="1246" r="12" fill="white" />
<circle cx="3114" cy="1672" r="12" fill="white" />
<circle cx="3161" cy="1151" r="12" fill="white" />
<circle cx="1747" cy="1314" r="12" fill="white" />
<circle cx="2538" cy="1284" r="12" fill="white" />
<circle cx="2597" cy="1374" r="12" fill="white" />
<circle cx="3206" cy="601" r="12" fill="white" />
<circle cx="1955" cy="1523" r="12" fill="white" />
<circle cx="2896" cy="1379" r="12" fill="white" />
<circle cx="1982" cy="1582" r="12" fill="white" />
<circle cx="2882" cy="959" r="12" fill="white" />
<circle cx="3191" cy="1338" r="12" fill="white" />
<circle cx="3215" cy="1495" r="12" fill="white" />
<circle cx="1200" cy="1612" r="12" fill="white" />
<circle cx="1246" cy="2972" r="12" fill="white" />
<circle cx="1555" cy="2228" r="12" fill="white" />
<circle cx="3013" cy="1060" r="12" fill="white" />
<circle cx="2852" cy="1475" r="12" fill="white" />
<circle cx="1115" cy="2853" r="11" fill="white" />
<circle cx="1132" cy="2758" r="11" fill="white" />
<circle cx="1179" cy="1666" r="11" fill="white" />
<circle cx="1195" cy="3009" r="11" fill="white" />
<circle cx="1200" cy="1996" r="11" fill="white" />
<circle cx="1221" cy="1523" r="11" fill="white" />
<circle cx="1222" cy="1558" r="11" fill="white" />
<circle cx="1231" cy="2176" r="11" fill="white" />
<circle cx="1404" cy="1241" r="11" fill="white" />
<circle cx="1430" cy="1991" r="11" fill="white" />
<circle cx="1493" cy="2004" r="11" fill="white" />
<circle cx="1515" cy="1931" r="11" fill="white" />
<circle cx="1543" cy="1911" r="11" fill="white" />
<circle cx="1562" cy="2113" r="11" fill="white" />
<circle cx="1584" cy="2023" r="11" fill="white" />
<circle cx="1617" cy="1716" r="11" fill="white" />
<circle cx="1628" cy="1928" r="11" fill="white" />
<circle cx="1684" cy="1439" r="11" fill="white" />
<circle cx="1686" cy="1613" r="11" fill="white" />
<circle cx="1696" cy="1673" r="11" fill="white" />
<circle cx="1702" cy="1758" r="11" fill="white" />
<circle cx="1714" cy="1264" r="11" fill="white" />
<circle cx="1741" cy="1880" r="11" fill="white" />
<circle cx="1861" cy="1596" r="11" fill="white" />
<circle cx="2236" cy="1690" r="11" fill="white" />
<circle cx="2359" cy="1432" r="11" fill="white" />
<circle cx="2468" cy="1622" r="11" fill="white" />
<circle cx="2752" cy="1353" r="11" fill="white" />
<circle cx="2790" cy="1799" r="11" fill="white" />
<circle cx="2897" cy="1402" r="11" fill="white" />
<circle cx="2897" cy="1522" r="11" fill="white" />
<circle cx="2915" cy="1719" r="11" fill="white" />
<circle cx="2937" cy="1053" r="11" fill="white" />
<circle cx="2982" cy="1271" r="11" fill="white" />
<circle cx="3083" cy="1098" r="11" fill="white" />
<circle cx="3089" cy="1669" r="11" fill="white" />
<circle cx="3230" cy="1114" r="11" fill="white" />
<circle cx="3283" cy="575" r="11" fill="white" />
<circle cx="3289" cy="823" r="11" fill="white" />
<circle cx="3326" cy="846" r="11" fill="white" />
<circle cx="3387" cy="930" r="11" fill="white" />
<circle cx="3402" cy="999" r="11" fill="white" />
<circle cx="3512" cy="985" r="11" fill="white" />
<circle cx="3529" cy="951" r="11" fill="white" />
<circle cx="3549" cy="893" r="11" fill="white" />
<circle cx="3679" cy="808" r="11" fill="white" />
<circle cx="3717" cy="844" r="11" fill="white" />
<circle cx="2197" cy="1580" r="11" fill="white" />
<circle cx="1375" cy="1165" r="11" fill="white" />
<circle cx="1377" cy="1192" r="11" fill="white" />
<circle cx="2602" cy="1554" r="11" fill="white" />
<circle cx="1201" cy="1281" r="11" fill="white" />
<circle cx="2377" cy="1419" r="11" fill="white" />
<circle cx="1895" cy="1433" r="11" fill="white" />
<circle cx="2894" cy="1551" r="11" fill="white" />
<circle cx="3014" cy="1544" r="11" fill="white" />
<circle cx="1191" cy="2716" r="11" fill="white" />
<circle cx="1861" cy="1482" r="11" fill="white" />
<circle cx="2534" cy="1556" r="11" fill="white" />
<circle cx="1214" cy="1259" r="11" fill="white" />
<circle cx="1524" cy="1219" r="11" fill="white" />
<circle cx="2338" cy="1663" r="11" fill="white" />
<circle cx="2724" cy="1400" r="11" fill="white" />
<circle cx="2634" cy="1436" r="11" fill="white" />
<circle cx="2839" cy="2701" r="11" fill="white" />
<circle cx="1729" cy="1329" r="11" fill="white" />
<circle cx="1423" cy="1566" r="11" fill="white" />
<circle cx="2224" cy="1661" r="11" fill="white" />
<circle cx="1790" cy="1504" r="11" fill="white" />
<circle cx="2718" cy="1233" r="11" fill="white" />
<circle cx="1353" cy="2057" r="11" fill="white" />
<circle cx="1586" cy="2561" r="11" fill="white" />
<circle cx="2818" cy="1559" r="11" fill="white" />
<circle cx="1238" cy="1319" r="11" fill="white" />
<circle cx="2773" cy="1306" r="11" fill="white" />
<circle cx="2835" cy="2431" r="11" fill="white" />
<circle cx="1803" cy="1617" r="11" fill="white" />
<circle cx="2109" cy="1621" r="11" fill="white" />
<circle cx="2428" cy="1705" r="11" fill="white" />
<circle cx="2279" cy="1657" r="11" fill="white" />
<circle cx="2502" cy="1731" r="11" fill="white" />
<circle cx="1396" cy="2255" r="11" fill="white" />
<circle cx="1118" cy="2874" r="10" fill="white" />
<circle cx="1150" cy="1949" r="10" fill="white" />
<circle cx="1176" cy="2597" r="10" fill="white" />
<circle cx="1192" cy="1634" r="10" fill="white" />
<circle cx="1232" cy="1390" r="10" fill="white" />
<circle cx="1272" cy="2563" r="10" fill="white" />
<circle cx="1313" cy="1516" r="10" fill="white" />
<circle cx="1341" cy="1533" r="10" fill="white" />
<circle cx="1342" cy="1492" r="10" fill="white" />
<circle cx="1370" cy="2322" r="10" fill="white" />
<circle cx="1372" cy="1583" r="10" fill="white" />
<circle cx="1384" cy="2385" r="10" fill="white" />
<circle cx="1389" cy="2420" r="10" fill="white" />
<circle cx="1438" cy="2160" r="10" fill="white" />
<circle cx="1451" cy="2078" r="10" fill="white" />
<circle cx="1461" cy="2009" r="10" fill="white" />
<circle cx="1484" cy="1923" r="10" fill="white" />
<circle cx="1486" cy="1529" r="10" fill="white" />
<circle cx="1500" cy="2084" r="10" fill="white" />
<circle cx="1505" cy="2348" r="10" fill="white" />
<circle cx="1511" cy="2302" r="10" fill="white" />
<circle cx="1515" cy="2062" r="10" fill="white" />
<circle cx="1517" cy="1993" r="10" fill="white" />
<circle cx="1517" cy="2175" r="10" fill="white" />
<circle cx="1575" cy="1671" r="10" fill="white" />
<circle cx="1632" cy="1621" r="10" fill="white" />
<circle cx="1638" cy="1797" r="10" fill="white" />
<circle cx="1641" cy="1344" r="10" fill="white" />
<circle cx="1653" cy="1767" r="10" fill="white" />
<circle cx="1683" cy="1968" r="10" fill="white" />
<circle cx="1715" cy="1462" r="10" fill="white" />
<circle cx="1829" cy="1822" r="10" fill="white" />
<circle cx="1973" cy="1487" r="10" fill="white" />
</svg>